<svg width="512" height="262" viewBox="0 0 512 262" fill="none" xmlns="http://www.w3.org/2000/svg">
<path d="M511.01 222.483C507.25 222.483 504.182 219.42 504.182 215.666C504.182 211.912 507.25 208.849 511.01 208.849C511.307 208.849 511.703 208.948 512 208.948V203.514C511.703 203.514 511.406 203.613 511.01 203.613C507.25 203.613 504.182 200.551 504.182 196.796C504.182 193.042 507.25 189.98 511.01 189.98C511.307 189.98 511.703 190.078 512 190.078V184.645C511.703 184.645 511.406 184.744 511.01 184.744C507.25 184.744 504.182 181.681 504.182 177.927C504.182 174.173 507.25 171.11 511.01 171.11C511.307 171.11 511.703 171.209 512 171.209V165.775C511.703 165.775 511.406 165.874 511.01 165.874C507.25 165.874 504.182 162.811 504.182 159.057C504.182 155.303 507.25 152.241 511.01 152.241C511.307 152.241 511.703 152.339 512 152.339V146.906C511.703 146.906 511.406 147.005 511.01 147.005C507.25 147.005 504.182 143.942 504.182 140.188C504.182 136.434 507.25 133.371 511.01 133.371C511.307 133.371 511.703 133.47 512 133.47V128.036C511.703 128.036 511.406 128.135 511.01 128.135C507.25 128.135 504.182 125.072 504.182 121.318C504.182 117.564 507.25 114.502 511.01 114.502C511.307 114.502 511.703 114.6 512 114.6V109.167C511.703 109.167 511.406 109.265 511.01 109.265C507.25 109.265 504.182 106.203 504.182 102.449C504.182 98.6946 507.25 95.632 511.01 95.632C511.307 95.632 511.703 95.7308 512 95.7308V90.0996C511.703 90.0996 511.406 90.1984 511.01 90.1984C507.25 90.1984 504.182 87.1358 504.182 83.3816C504.182 79.6275 507.25 76.5649 511.01 76.5649C511.307 76.5649 511.703 76.6637 512 76.6637V71.23C511.703 71.23 511.406 71.3288 511.01 71.3288C507.25 71.3288 504.182 68.2662 504.182 64.5121C504.182 60.7579 507.25 57.6953 511.01 57.6953C511.307 57.6953 511.703 57.7941 512 57.7941V52.3605C511.703 52.3605 511.406 52.4593 511.01 52.4593C507.25 52.4593 504.182 49.3967 504.182 45.6425C504.182 41.8884 507.25 38.8258 511.01 38.8258C511.307 38.8258 511.703 38.9246 512 38.9246V32.503C493.99 32.503 479.443 17.9804 479.443 0H32.5566C32.5566 17.9804 18.0101 32.503 0 32.503V38.9246C0.395825 38.8258 0.89061 38.8258 1.28644 38.8258C5.04678 38.8258 8.11441 41.8884 8.11441 45.6425C8.11441 49.3967 5.04678 52.4593 1.28644 52.4593C0.791654 52.4593 0.395825 52.3605 0 52.3605V57.8929C0.395825 57.7941 0.89061 57.7941 1.28644 57.7941C5.04678 57.7941 8.11441 60.8567 8.11441 64.6109C8.11441 68.365 5.04678 71.4276 1.28644 71.4276C0.791654 71.4276 0.395825 71.4276 0 71.3288V76.8613C0.395825 76.7625 0.89061 76.7625 1.28644 76.7625C5.04678 76.7625 8.11441 79.825 8.11441 83.5792C8.11441 87.3333 5.04678 90.3959 1.28644 90.3959C0.791654 90.3959 0.395825 90.3959 0 90.2972V95.8296C0.395825 95.7308 0.89061 95.7308 1.28644 95.7308C5.04678 95.7308 8.11441 98.7934 8.11441 102.548C8.11441 106.302 5.04678 109.364 1.28644 109.364C0.791654 109.364 0.395825 109.364 0 109.265V114.798C0.395825 114.699 0.89061 114.699 1.28644 114.699C5.04678 114.699 8.11441 117.762 8.11441 121.516C8.11441 125.27 5.04678 128.333 1.28644 128.333C0.791654 128.333 0.395825 128.333 0 128.234V133.766C0.395825 133.667 0.89061 133.667 1.28644 133.667C5.04678 133.667 8.11441 136.73 8.11441 140.484C8.11441 144.238 5.04678 147.301 1.28644 147.301C0.791654 147.301 0.395825 147.301 0 147.202V152.735C0.395825 152.636 0.89061 152.636 1.28644 152.636C5.04678 152.636 8.11441 155.698 8.11441 159.453C8.11441 163.207 5.04678 166.269 1.28644 166.269C0.791654 166.269 0.395825 166.269 0 166.17V171.703C0.395825 171.604 0.89061 171.604 1.28644 171.604C5.04678 171.604 8.11441 174.667 8.11441 178.421C8.11441 182.175 5.04678 185.238 1.28644 185.238C0.791654 185.238 0.395825 185.238 0 185.139V190.671C0.395825 190.572 0.89061 190.572 1.28644 190.572C5.04678 190.572 8.11441 193.635 8.11441 197.389C8.11441 201.143 5.04678 204.206 1.28644 204.206C0.791654 204.206 0.395825 204.107 0 204.107V209.64C0.395825 209.541 0.89061 209.541 1.28644 209.541C5.04678 209.541 8.11441 212.603 8.11441 216.357C8.11441 220.112 5.04678 223.174 1.28644 223.174C0.791654 223.174 0.395825 223.075 0 223.075V229.497C18.0101 229.497 32.5566 244.02 32.5566 262H479.443C479.443 244.02 493.99 229.497 512 229.497V223.075C511.604 222.483 511.307 222.483 511.01 222.483Z" fill="black"/>
</svg>
